<?xml version="1.0" encoding="utf-8"?>
<!-- Generator: Adobe Illustrator 16.0.0, SVG Export Plug-In . SVG Version: 6.00 Build 0)  -->
<!DOCTYPE svg PUBLIC "-//W3C//DTD SVG 1.0//EN" "http://www.w3.org/TR/2001/REC-SVG-20010904/DTD/svg10.dtd">
<svg version="1.0" id="Layer_1" xmlns="http://www.w3.org/2000/svg" xmlns:xlink="http://www.w3.org/1999/xlink" x="0px" y="0px"
	 width="640px" height="149.83px" viewBox="0 0 640 149.83" enable-background="new 0 0 640 149.83" xml:space="preserve">
<g>
	<g>
		<g>
			<path fill="#266E9E" d="M392.147,129.139c-30.106,0-54.6-24.494-54.6-54.602s24.493-54.601,54.6-54.601
				c30.108,0,54.602,24.494,54.602,54.601S422.256,129.139,392.147,129.139z"/>
			<path fill="#FFBF1F" d="M392.416,22.345c28.336,0,51.389,23.053,51.389,51.389c0,28.336-23.053,51.391-51.389,51.391
				s-51.389-23.055-51.389-51.391C341.027,45.398,364.08,22.345,392.416,22.345 M392.416,15.921
				c-31.929,0-57.812,25.884-57.812,57.813c0,31.93,25.884,57.814,57.812,57.814s57.812-25.885,57.812-57.814
				C450.229,41.806,424.345,15.921,392.416,15.921L392.416,15.921z"/>
		</g>
		<path fill="#FFBF1F" d="M422.1,63.611c-0.154-0.473-0.598-0.797-1.098-0.797H400.01l-6.497-19.956
			c-0.155-0.474-0.599-0.796-1.097-0.797s-0.942,0.321-1.099,0.796l-6.533,19.957h-20.955c-0.498,0-0.943,0.322-1.097,0.797
			c-0.155,0.475,0.015,0.998,0.417,1.291l16.957,12.352l-6.535,20.066c-0.154,0.475,0.017,1,0.419,1.293
			c0.404,0.293,0.955,0.293,1.357,0l17.065-12.391l17.032,12.391c0.202,0.146,0.441,0.221,0.679,0.221
			c0.238,0,0.477-0.074,0.679-0.221c0.407-0.295,0.574-0.814,0.42-1.293l-6.535-20.066l16.993-12.351
			C422.084,64.611,422.254,64.087,422.1,63.611"/>
	</g>
</g>
<g>
	<g>
		<path fill="#FFF1DE" d="M110.72,130.592c-30.107,0-54.601-24.494-54.601-54.602S80.613,21.39,110.72,21.39
			s54.602,24.493,54.602,54.601S140.828,130.592,110.72,130.592z"/>
		<path fill="#066648" d="M110.72,24.602c28.336,0,51.39,23.053,51.39,51.389s-23.053,51.391-51.39,51.391
			s-51.39-23.055-51.39-51.391S82.384,24.602,110.72,24.602 M110.72,18.178c-31.929,0-57.813,25.884-57.813,57.812
			c0,31.93,25.884,57.814,57.813,57.814c31.929,0,57.813-25.885,57.813-57.814C168.534,44.062,142.649,18.178,110.72,18.178
			L110.72,18.178z"/>
	</g>
	<path fill="#066648" d="M136.079,92.236c13.889-13.891,14.3-36.234,1.235-50.627l1.638-1.637c0.744-0.745,0.744-1.95,0-2.694
		c-0.745-0.745-1.951-0.745-2.695,0l-7.972,7.972c-5.083-4.327-11.463-6.69-18.207-6.69h0c-7.497,0.001-14.542,2.917-19.836,8.211
		c-4.271,4.272-6.99,9.681-7.884,15.548l-0.215,0.215l0.161,0.161c-0.179,1.297-0.274,2.616-0.272,3.948
		c0.008,6.73,2.372,13.1,6.689,18.174l-7.497,7.496c-0.744,0.744-0.744,1.949,0,2.695c0.372,0.371,0.86,0.557,1.347,0.557
		c0.488,0,0.975-0.186,1.347-0.557l1.535-1.535c6.327,5.75,14.335,9.066,22.875,9.475v3.67c-4.906,0.898-8.629,5.189-8.629,10.355
		h21.068c0-5.166-3.722-9.457-8.629-10.355v-3.686C121.184,102.443,129.621,98.691,136.079,92.236z M110.2,90.969
		c-3.126,0-6.253-0.602-9.194-1.799c3.034-0.293,6.319-1.33,9.603-2.996c1.451,2.283,2.11,3.891,2.107,4.586l-0.086,0.084
		C111.822,90.926,111.012,90.969,110.2,90.969z M92.065,72.816c0.413-1.459,0.99-2.941,1.708-4.422
		c1.813,1.381,3.869,3.117,6.112,5.254l-7.784,7.783C91.114,79.24,91.088,76.273,92.065,72.816z M92.516,62.867
		c-1.73-1.09-3.906-2.301-5.839-2.568c0.91-3.39,2.566-6.617,4.97-9.428l5.731,5.73c-1.85,2.002-3.481,4.111-4.86,6.268
		C92.518,62.869,92.517,62.869,92.516,62.867z M106.804,48.618c0.022,0.036,0.05,0.074,0.073,0.11
		c-2.341,1.44-4.641,3.183-6.807,5.179l-5.729-5.73c2.952-2.525,6.364-4.232,9.943-5.108
		C104.625,44.926,105.768,46.973,106.804,48.618z M126.765,64.35c-1.847-1.419-3.937-3.197-6.221-5.391l7.441-7.441
		C129.62,54.623,129.073,59.344,126.765,64.35z M111.757,81.16c-1.729-2.312-3.833-4.777-6.187-7.229l4.568-4.568l7.369,7.369
		C115.661,78.428,113.721,79.916,111.757,81.16z M99.29,85.453c-1.682,0-3.116-0.32-4.298-0.943l7.884-7.885
		c2.266,2.361,4.091,4.518,5.53,6.408C105.215,84.588,102.073,85.453,99.29,85.453L99.29,85.453z M112.833,66.669l5.017-5.018
		c1.658,1.587,4.269,3.968,7.09,6.11c-1.295,2.127-2.884,4.252-4.738,6.277L112.833,66.669z M124.898,48.636l-7.332,7.333
		c-2.071-2.177-3.759-4.172-5.118-5.943c2.994-1.381,5.926-2.14,8.541-2.14C122.49,47.885,123.794,48.14,124.898,48.636z
		 M114.872,58.662l-5.022,5.023l-7.081-7.08c2.016-1.85,4.141-3.449,6.285-4.758C110.697,54.034,112.671,56.351,114.872,58.662z
		 M100.074,59.299l7.082,7.08l-4.574,4.574c-2.354-2.241-4.713-4.25-6.935-5.912C96.893,63.074,98.382,61.141,100.074,59.299z
		 M116.479,90.139c-0.252-1.934-1.465-4.119-2.561-5.861c2.162-1.375,4.283-2.998,6.289-4.846l5.73,5.73
		C123.119,87.572,119.88,89.232,116.479,90.139z M128.631,82.469l-5.732-5.732c2.031-2.195,3.768-4.477,5.192-6.773
		c2.001,1.27,3.97,2.23,5.654,2.533C132.873,76.086,131.163,79.508,128.631,82.469z M134.347,68.771
		c-0.835-0.158-2.35-0.846-4.398-2.163c1.519-3.119,2.436-6.19,2.707-9.027C134.103,61.15,134.664,64.992,134.347,68.771z
		 M119.271,44.169c-2.862,0.276-5.948,1.218-9.047,2.723c-1.333-2.068-2.028-3.595-2.187-4.43c0.678-0.058,1.359-0.091,2.04-0.091
		C113.203,42.37,116.33,42.97,119.271,44.169z M85.976,64.088l0.033-0.033c0,0,0.004,0,0.006,0c0.7,0,2.315,0.665,4.607,2.125
		c-0.947,1.868-1.699,3.748-2.223,5.6c-0.393,1.389-0.644,2.727-0.77,4.004C86.116,72.055,85.566,68.03,85.976,64.088z
		 M91.458,87.627c5.167,4.621,11.762,7.152,18.743,7.152c1.321,0,2.628-0.096,3.916-0.273l0.121,0.121l0.157-0.158
		c5.903-0.879,11.348-3.607,15.644-7.902c10.566-10.566,10.911-27.545,1.059-38.579l3.596-3.596
		c11.503,12.905,11.067,32.772-1.308,45.149c-6.216,6.217-14.48,9.639-23.27,9.639c-8.15,0-15.85-2.943-21.881-8.328L91.458,87.627z
		"/>
</g>
<g>
	<g>
		<g>
			<path fill="#B4EFE5" d="M250.984,128.596c-30.107,0-54.601-24.496-54.601-54.604c0-30.106,24.494-54.6,54.601-54.6
				s54.601,24.494,54.601,54.6C305.585,104.1,281.092,128.596,250.984,128.596z"/>
		</g>
		<g>
			<path fill="#BC3026" d="M250.984,22.604c28.336,0,51.389,23.053,51.389,51.388c0,28.338-23.053,51.391-51.389,51.391
				s-51.389-23.053-51.389-51.391C199.595,45.657,222.648,22.604,250.984,22.604 M250.984,16.18
				c-31.929,0-57.813,25.884-57.813,57.812c0,31.93,25.884,57.814,57.813,57.814c31.929,0,57.813-25.885,57.813-57.814
				C308.797,42.064,282.914,16.18,250.984,16.18L250.984,16.18z"/>
		</g>
	</g>
	<g>
		<path fill="#BC3026" d="M258.211,75.717h-4.283c0-0.678,0-1.607-3.212-1.607c-3.211,0-3.211,0.93-3.211,1.607h-4.283
			c0-2.199,0.973-5.889,7.494-5.889S258.211,73.518,258.211,75.717z"/>
	</g>
	<g>
		<path fill="#BC3026" d="M217.528,71.848c-0.77,0-1.515-0.416-1.896-1.146c-0.55-1.047-0.147-2.34,0.899-2.891l17.232-9.047
			c0.252-0.116,6.246-2.772,12.024,3.008c0.837,0.836,0.837,2.191,0,3.027c-0.834,0.837-2.192,0.837-3.027,0
			c-3.504-3.503-6.813-2.307-7.176-2.158l-17.061,8.961C218.206,71.768,217.865,71.848,217.528,71.848z"/>
	</g>
	<g>
		<path fill="#BC3026" d="M283.895,71.848c-0.336,0-0.676-0.078-0.994-0.246l-17.057-8.959c-0.357-0.141-3.703-1.322-7.18,2.156
			c-0.835,0.837-2.192,0.837-3.028,0c-0.837-0.836-0.837-2.191,0-3.027c5.78-5.779,11.772-3.125,12.024-3.008l0.102,0.05
			l17.13,8.997c1.046,0.551,1.45,1.844,0.899,2.891C285.41,71.43,284.665,71.848,283.895,71.848z"/>
	</g>
	<g>
		<path fill="#BC3026" d="M247.505,88.182h-32.119V67.955h32.119V88.182z M219.668,83.898h23.554V72.236h-23.554V83.898z"/>
	</g>
	<g>
		<path fill="#BC3026" d="M286.047,88.182h-32.119V67.955h32.119V88.182z M258.211,83.898h23.553V72.236h-23.553V83.898z"/>
	</g>
</g>
<g>
	<g>
		<path fill="#FFE578" d="M528.927,126.414c-30.107,0-54.601-24.494-54.601-54.602c0-30.107,24.493-54.601,54.601-54.601
			s54.601,24.494,54.601,54.601C583.527,101.92,559.034,126.414,528.927,126.414z"/>
		<path fill="#1B63AA" d="M528.927,20.424c28.337,0,51.39,23.053,51.39,51.389s-23.053,51.391-51.39,51.391
			c-28.336,0-51.389-23.055-51.389-51.391S500.591,20.424,528.927,20.424 M528.927,14c-31.929,0-57.812,25.884-57.812,57.812
			c0,31.93,25.884,57.814,57.812,57.814s57.812-25.885,57.812-57.814C586.739,39.884,560.855,14,528.927,14L528.927,14z"/>
	</g>
</g>
<path fill="#1B63AA" d="M550.243,52.1c0,0-1.504,2.482-10.247,1.508c-9.521-1.06-10.896-8.107-18.844-9.401
	c-6.46-1.051-12.212,2.513-14.14,3.886l-0.939-1.462c-0.757-1.179-2.328-1.521-3.508-0.764c-1.179,0.757-1.521,2.329-0.763,3.508
	l35.714,55.61c0.485,0.754,1.303,1.166,2.138,1.166c0.471,0,0.945-0.131,1.37-0.402c1.179-0.758,1.521-2.328,0.763-3.508
	L522.66,72.457c2.602-1.594,7.479-3.908,12.849-3.035c7.95,1.293,9.324,8.342,18.845,9.402c8.742,0.973,10.248-1.508,10.248-1.508
	L550.243,52.1z"/>
</svg>
