<?xml version="1.0" encoding="utf-8"?>
<!-- Generator: Adobe Illustrator 15.0.0, SVG Export Plug-In . SVG Version: 6.00 Build 0)  -->
<!DOCTYPE svg PUBLIC "-//W3C//DTD SVG 1.1//EN" "http://www.w3.org/Graphics/SVG/1.1/DTD/svg11.dtd">
<svg version="1.1" id="Layer_1" xmlns="http://www.w3.org/2000/svg" xmlns:xlink="http://www.w3.org/1999/xlink" x="0px" y="0px"
	 width="400px" height="400.004px" viewBox="0 0 400 400.004" enable-background="new 0 0 400 400.004" xml:space="preserve">
<g>
	<defs>
		<rect id="SVGID_1_" width="400" height="400.004"/>
	</defs>
	<clipPath id="SVGID_2_">
		<use xlink:href="#SVGID_1_"  overflow="visible"/>
	</clipPath>
	<path clip-path="url(#SVGID_2_)" fill="#FFFFFF" d="M9.015,198.556c0-106.033,85.957-191.99,191.99-191.99
		c106.032,0,191.989,85.957,191.989,191.99c0,106.033-85.957,191.99-191.989,191.99C94.972,390.546,9.015,304.589,9.015,198.556"/>
	<path clip-path="url(#SVGID_2_)" d="M200,400C89.719,400,0,310.279,0,200C0,89.72,89.719,0,200,0c110.279,0,200,89.72,200,200
		C400,310.279,310.279,400,200,400"/>
	<path clip-path="url(#SVGID_2_)" fill="#FFFFFF" d="M275.805,302.952l-23.766-58.074H147.964L124.2,302.952h-20.014l95.816-234.127
		l95.812,234.127H275.805z M156.312,224.479h87.377l-43.688-106.749L156.312,224.479z"/>
</g>
</svg>
